# xmcd
#
# Track frame offsets:
#       150
#       15589
#       28839
#       41004
#       57599
#       69972
#       83028
#       94425
#       110017
#       125693
#       148490
#
# Disc length: 2244 seconds
#
# Revision: 0
# Processed by: cddbd v1.4PL0 Copyright (c) Steve Scherf et al.
# Submitted via: CD-DA_X-Tractor v0.23
#
DISCID=a308c20b
DTITLE=Lisa Dodd - Never Heard of Her
DYEAR=1996
DGENRE=Country
TTITLE0=Something's Out There
TTITLE1=Brand New Day
TTITLE2=All Love Needs
TTITLE3=Here Comes Trouble
TTITLE4=Goodbye Wheatland County
TTITLE5=I Got The Blues Again
TTITLE6=That's How Over It Is
TTITLE7=I Love Being Wrong
TTITLE8=It's All Uphill
TTITLE9=The Star
TTITLE10=Data Track
EXTD=
EXTT0=
EXTT1=
EXTT2=
EXTT3=
EXTT4=
EXTT5=
EXTT6=
EXTT7=
EXTT8=
EXTT9=
EXTT10=
PLAYORDER=
